+ filenameToUse=/home/horvathandras/vatic/vatic/public/videouploads/DJI_0015_gazos_gyer_gabonaban_turas_kotcse_20180710_napos_kalaszos_T4.avi
+ filenameNoDot=DJI_0015_gazos_gyer_gabonaban_turas_kotcse_20180710_napos_kalaszos_T4
+ FullUploadPath=/home/horvathandras/vatic/vatic/public/videouploads/DJI_0015_gazos_gyer_gabonaban_turas_kotcse_20180710_napos_kalaszos_T4.avi
+ VideoDataDir=/home/horvathandras/vatic/vatic/videos
+ AvailableObjectTypes='PozitívROI NegatívROI Túrás ~Friss ~1-2Hetes ~Régebbi ~Egyéb1 ~Egyéb2 ~Egyéb3 Rágás ~Friss ~1-2Hetes ~Régebbi ~Egyéb1 ~Egyéb2 ~Egyéb3 Törés ~Friss ~1-2Hetes ~Régebbi ~Egyéb1 ~Egyéb2 ~Egyéb3 Taposás ~Friss ~1-2Hetes ~Régebbi ~Egyéb1 ~Egyéb2 ~Egyéb3 EgészségesNövény Egyéb1 Egyéb2 Egyéb3 Egyéb4 Egyéb5 Bizonytalan Művelőút Gktaposás Vetőhiba Széldöntés Jégkár Belvíz Aszály Erózió EgyszikűGyom KétszikűGyom EgyébNövvédelmiPR'
++ dirname /home/horvathandras/vatic/vatic/vatic_publisher.sh
+ cd /home/horvathandras/vatic/vatic
+ touch /home/horvathandras/vatic/vatic/public/videouploads/DJI_0015_gazos_gyer_gabonaban_turas_kotcse_20180710_napos_kalaszos_T4.avi
+ chmod 744 /home/horvathandras/vatic/vatic/public/videouploads/DJI_0015_gazos_gyer_gabonaban_turas_kotcse_20180710_napos_kalaszos_T4.avi
+ mkdir /home/horvathandras/vatic/vatic/videos/DJI_0015_gazos_gyer_gabonaban_turas_kotcse_20180710_napos_kalaszos_T4
mkdir: cannot create directory '/home/horvathandras/vatic/vatic/videos/DJI_0015_gazos_gyer_gabonaban_turas_kotcse_20180710_napos_kalaszos_T4': File exists
+ turkic extract /home/horvathandras/vatic/vatic/public/videouploads/DJI_0015_gazos_gyer_gabonaban_turas_kotcse_20180710_napos_kalaszos_T4.avi /home/horvathandras/vatic/vatic/videos/DJI_0015_gazos_gyer_gabonaban_turas_kotcse_20180710_napos_kalaszos_T4 --no-resize
ffmpeg version 2.8.14-0ubuntu0.16.04.1 Copyright (c) 2000-2018 the FFmpeg developers
  built with gcc 5.4.0 (Ubuntu 5.4.0-6ubuntu1~16.04.9) 20160609
  configuration: --prefix=/usr --extra-version=0ubuntu0.16.04.1 --build-suffix=-ffmpeg --toolchain=hardened --libdir=/usr/lib/x86_64-linux-gnu --incdir=/usr/include/x86_64-linux-gnu --cc=cc --cxx=g++ --enable-gpl --enable-shared --disable-stripping --disable-decoder=libopenjpeg --disable-decoder=libschroedinger --enable-avresample --enable-avisynth --enable-gnutls --enable-ladspa --enable-libass --enable-libbluray --enable-libbs2b --enable-libcaca --enable-libcdio --enable-libflite --enable-libfontconfig --enable-libfreetype --enable-libfribidi --enable-libgme --enable-libgsm --enable-libmodplug --enable-libmp3lame --enable-libopenjpeg --enable-libopus --enable-libpulse --enable-librtmp --enable-libschroedinger --enable-libshine --enable-libsnappy --enable-libsoxr --enable-libspeex --enable-libssh --enable-libtheora --enable-libtwolame --enable-libvorbis --enable-libvpx --enable-libwavpack --enable-libwebp --enable-libx265 --enable-libxvid --enable-libzvbi --enable-openal --enable-opengl --enable-x11grab --enable-libdc1394 --enable-libiec61883 --enable-libzmq --enable-frei0r --enable-libx264 --enable-libopencv
  libavutil      54. 31.100 / 54. 31.100
  libavcodec     56. 60.100 / 56. 60.100
  libavformat    56. 40.101 / 56. 40.101
  libavdevice    56.  4.100 / 56.  4.100
  libavfilter     5. 40.101 /  5. 40.101
  libavresample   2.  1.  0 /  2.  1.  0
  libswscale      3.  1.101 /  3.  1.101
  libswresample   1.  2.101 /  1.  2.101
  libpostproc    53.  3.100 / 53.  3.100
Input #0, mov,mp4,m4a,3gp,3g2,mj2, from '/home/horvathandras/vatic/vatic/public/videouploads/DJI_0015_gazos_gyer_gabonaban_turas_kotcse_20180710_napos_kalaszos_T4.avi':
  Metadata:
    major_brand     : qt  
    minor_version   : 537986816
    compatible_brands: qt  
    creation_time   : 2018-07-10 09:24:52
    location        : +46.716210+17.870313+30.600
    location-{    : +46.716210+17.870313+30.600
    comment         : DE=None, Mode=P, DSW=0001
  Duration: 00:00:19.56, start: 0.000000, bitrate: 101145 kb/s
    Stream #0:0(eng): Video: h264 (High) (avc1 / 0x31637661), yuv420p(tv, bt709), 4096x2160 [SAR 1:1 DAR 256:135], 100934 kb/s, 50 fps, 50 tbr, 50k tbn, 100 tbc (default)
    Metadata:
      creation_time   : 2018-07-10 09:24:52
      handler_name    : DJI.AVC
      encoder         : AVC encoder
    Stream #0:1(eng): Data: none (priv / 0x76697270), 201 kb/s
    Metadata:
      creation_time   : 2018-07-10 09:24:52
      handler_name    : DJI.Meta
Please use -b:a or -b:v, -b is ambiguous
[swscaler @ 0x1bba7a0] deprecated pixel format used, make sure you did set range correctly
Output #0, image2, to '/tmp/pyvision-ffmpeg-213039479/%d.jpg':
  Metadata:
    major_brand     : qt  
    minor_version   : 537986816
    compatible_brands: qt  
    comment         : DE=None, Mode=P, DSW=0001
    location        : +46.716210+17.870313+30.600
    location-{    : +46.716210+17.870313+30.600
    encoder         : Lavf56.40.101
    Stream #0:0(eng): Video: mjpeg, yuvj420p(pc), 4096x2160 [SAR 1:1 DAR 256:135], q=2-31, 10000 kb/s, 50 fps, 50 tbn, 50 tbc (default)
    Metadata:
      creation_time   : 2018-07-10 09:24:52
      handler_name    : DJI.AVC
      encoder         : Lavc56.60.100 mjpeg
Stream mapping:
  Stream #0:0 -> #0:0 (h264 (native) -> mjpeg (native))
Press [q] to stop, [?] for help
frame=    1 fps=0.8 q=18.2 size=N/A time=00:00:00.02 bitrate=N/A    frame=    3 fps=1.7 q=22.5 size=N/A time=00:00:00.06 bitrate=N/A    frame=    6 fps=2.5 q=24.8 size=N/A time=00:00:00.12 bitrate=N/A    frame=    9 fps=3.0 q=24.8 size=N/A time=00:00:00.18 bitrate=N/A    frame=   13 fps=3.6 q=24.8 size=N/A time=00:00:00.26 bitrate=N/A    frame=   16 fps=3.9 q=24.8 size=N/A time=00:00:00.32 bitrate=N/A    frame=   19 fps=4.0 q=24.8 size=N/A time=00:00:00.38 bitrate=N/A    frame=   22 fps=4.2 q=24.8 size=N/A time=00:00:00.44 bitrate=N/A    frame=   25 fps=4.3 q=24.8 size=N/A time=00:00:00.50 bitrate=N/A    frame=   28 fps=4.3 q=24.8 size=N/A time=00:00:00.56 bitrate=N/A    frame=   31 fps=4.4 q=24.8 size=N/A time=00:00:00.62 bitrate=N/A    frame=   34 fps=4.4 q=24.8 size=N/A time=00:00:00.68 bitrate=N/A    frame=   37 fps=4.4 q=24.8 size=N/A time=00:00:00.74 bitrate=N/A    frame=   40 fps=4.5 q=24.8 size=N/A time=00:00:00.80 bitrate=N/A    frame=   44 fps=4.6 q=24.8 size=N/A time=00:00:00.88 bitrate=N/A    frame=   47 fps=4.6 q=24.8 size=N/A time=00:00:00.94 bitrate=N/A    frame=   50 fps=4.7 q=24.8 size=N/A time=00:00:01.00 bitrate=N/A    frame=   53 fps=4.7 q=24.8 size=N/A time=00:00:01.06 bitrate=N/A    frame=   57 fps=4.7 q=24.8 size=N/A time=00:00:01.14 bitrate=N/A    frame=   60 fps=4.8 q=24.8 size=N/A time=00:00:01.20 bitrate=N/A    frame=   64 fps=4.8 q=24.8 size=N/A time=00:00:01.28 bitrate=N/A    frame=   68 fps=4.9 q=24.8 size=N/A time=00:00:01.36 bitrate=N/A    frame=   71 fps=5.0 q=24.8 size=N/A time=00:00:01.42 bitrate=N/A    frame=   74 fps=5.0 q=24.8 size=N/A time=00:00:01.48 bitrate=N/A    frame=   77 fps=5.0 q=24.8 size=N/A time=00:00:01.54 bitrate=N/A    frame=   81 fps=5.1 q=24.8 size=N/A time=00:00:01.62 bitrate=N/A    frame=   84 fps=5.1 q=24.8 size=N/A time=00:00:01.68 bitrate=N/A    frame=   87 fps=5.1 q=24.8 size=N/A time=00:00:01.74 bitrate=N/A    frame=   90 fps=5.1 q=24.8 size=N/A time=00:00:01.80 bitrate=N/A    frame=   93 fps=5.1 q=24.8 size=N/A time=00:00:01.86 bitrate=N/A    frame=   97 fps=5.1 q=24.8 size=N/A time=00:00:01.94 bitrate=N/A    frame=  100 fps=5.1 q=24.8 size=N/A time=00:00:02.00 bitrate=N/A    frame=  103 fps=5.1 q=24.8 size=N/A time=00:00:02.06 bitrate=N/A    frame=  107 fps=5.2 q=24.8 size=N/A time=00:00:02.14 bitrate=N/A    frame=  111 fps=5.2 q=24.8 size=N/A time=00:00:02.22 bitrate=N/A    frame=  115 fps=5.2 q=24.8 size=N/A time=00:00:02.30 bitrate=N/A    frame=  118 fps=5.3 q=24.8 size=N/A time=00:00:02.36 bitrate=N/A    frame=  121 fps=5.3 q=24.8 size=N/A time=00:00:02.42 bitrate=N/A    frame=  125 fps=5.3 q=24.8 size=N/A time=00:00:02.50 bitrate=N/A    frame=  128 fps=5.3 q=24.8 size=N/A time=00:00:02.56 bitrate=N/A    frame=  132 fps=5.3 q=24.8 size=N/A time=00:00:02.64 bitrate=N/A    frame=  135 fps=5.3 q=24.8 size=N/A time=00:00:02.70 bitrate=N/A    frame=  138 fps=5.3 q=24.8 size=N/A time=00:00:02.76 bitrate=N/A    frame=  141 fps=5.3 q=24.8 size=N/A time=00:00:02.82 bitrate=N/A    frame=  144 fps=5.3 q=24.8 size=N/A time=00:00:02.88 bitrate=N/A    frame=  147 fps=5.3 q=24.8 size=N/A time=00:00:02.94 bitrate=N/A    frame=  150 fps=5.3 q=24.8 size=N/A time=00:00:03.00 bitrate=N/A    frame=  153 fps=5.3 q=24.8 size=N/A time=00:00:03.06 bitrate=N/A    frame=  156 fps=5.3 q=24.8 size=N/A time=00:00:03.12 bitrate=N/A    frame=  160 fps=5.4 q=24.8 size=N/A time=00:00:03.20 bitrate=N/A    frame=  163 fps=5.3 q=24.8 size=N/A time=00:00:03.26 bitrate=N/A    frame=  167 fps=5.4 q=24.8 size=N/A time=00:00:03.34 bitrate=N/A    frame=  171 fps=5.4 q=24.8 size=N/A time=00:00:03.42 bitrate=N/A    frame=  174 fps=5.4 q=24.8 size=N/A time=00:00:03.48 bitrate=N/A    frame=  178 fps=5.4 q=24.8 size=N/A time=00:00:03.56 bitrate=N/A    frame=  181 fps=5.4 q=24.8 size=N/A time=00:00:03.62 bitrate=N/A    frame=  185 fps=5.4 q=24.8 size=N/A time=00:00:03.70 bitrate=N/A    frame=  189 fps=5.5 q=24.8 size=N/A time=00:00:03.78 bitrate=N/A    frame=  193 fps=5.5 q=24.8 size=N/A time=00:00:03.86 bitrate=N/A    frame=  196 fps=5.5 q=24.8 size=N/A time=00:00:03.92 bitrate=N/A    frame=  199 fps=5.5 q=24.8 size=N/A time=00:00:03.98 bitrate=N/A    frame=  203 fps=5.5 q=24.8 size=N/A time=00:00:04.06 bitrate=N/A    frame=  206 fps=5.5 q=24.8 size=N/A time=00:00:04.12 bitrate=N/A    frame=  209 fps=5.5 q=24.8 size=N/A time=00:00:04.18 bitrate=N/A    frame=  212 fps=5.5 q=24.8 size=N/A time=00:00:04.24 bitrate=N/A    frame=  215 fps=5.5 q=24.8 size=N/A time=00:00:04.30 bitrate=N/A    frame=  219 fps=5.5 q=24.8 size=N/A time=00:00:04.38 bitrate=N/A    frame=  222 fps=5.5 q=24.8 size=N/A time=00:00:04.44 bitrate=N/A    frame=  225 fps=5.5 q=24.8 size=N/A time=00:00:04.50 bitrate=N/A    frame=  228 fps=5.5 q=24.8 size=N/A time=00:00:04.56 bitrate=N/A    frame=  231 fps=5.5 q=24.8 size=N/A time=00:00:04.62 bitrate=N/A    frame=  234 fps=5.5 q=24.8 size=N/A time=00:00:04.68 bitrate=N/A    frame=  237 fps=5.5 q=24.8 size=N/A time=00:00:04.74 bitrate=N/A    frame=  240 fps=5.5 q=24.8 size=N/A time=00:00:04.80 bitrate=N/A    frame=  243 fps=5.5 q=24.8 size=N/A time=00:00:04.86 bitrate=N/A    frame=  246 fps=5.5 q=24.8 size=N/A time=00:00:04.92 bitrate=N/A    frame=  249 fps=5.5 q=24.8 size=N/A time=00:00:04.98 bitrate=N/A    frame=  252 fps=5.5 q=24.8 size=N/A time=00:00:05.04 bitrate=N/A    frame=  255 fps=5.5 q=24.8 size=N/A time=00:00:05.10 bitrate=N/A    frame=  259 fps=5.5 q=24.8 size=N/A time=00:00:05.18 bitrate=N/A    frame=  263 fps=5.5 q=24.8 size=N/A time=00:00:05.26 bitrate=N/A    frame=  266 fps=5.5 q=24.8 size=N/A time=00:00:05.32 bitrate=N/A    frame=  270 fps=5.5 q=24.8 size=N/A time=00:00:05.40 bitrate=N/A    frame=  273 fps=5.5 q=24.8 size=N/A time=00:00:05.46 bitrate=N/A    frame=  277 fps=5.5 q=24.8 size=N/A time=00:00:05.54 bitrate=N/A    frame=  280 fps=5.5 q=24.8 size=N/A time=00:00:05.60 bitrate=N/A    frame=  283 fps=5.5 q=24.8 size=N/A time=00:00:05.66 bitrate=N/A    frame=  287 fps=5.5 q=24.8 size=N/A time=00:00:05.74 bitrate=N/A    frame=  291 fps=5.5 q=24.8 size=N/A time=00:00:05.82 bitrate=N/A    frame=  295 fps=5.5 q=24.8 size=N/A time=00:00:05.90 bitrate=N/A    frame=  298 fps=5.5 q=24.8 size=N/A time=00:00:05.96 bitrate=N/A    frame=  302 fps=5.5 q=24.8 size=N/A time=00:00:06.04 bitrate=N/A    frame=  305 fps=5.5 q=24.8 size=N/A time=00:00:06.10 bitrate=N/A    frame=  309 fps=5.5 q=24.8 size=N/A time=00:00:06.18 bitrate=N/A    frame=  312 fps=5.5 q=24.8 size=N/A time=00:00:06.24 bitrate=N/A    frame=  316 fps=5.5 q=24.8 size=N/A time=00:00:06.32 bitrate=N/A    frame=  319 fps=5.5 q=24.8 size=N/A time=00:00:06.38 bitrate=N/A    frame=  322 fps=5.5 q=24.8 size=N/A time=00:00:06.44 bitrate=N/A    frame=  325 fps=5.5 q=24.8 size=N/A time=00:00:06.50 bitrate=N/A    frame=  328 fps=5.5 q=24.8 size=N/A time=00:00:06.56 bitrate=N/A    frame=  332 fps=5.5 q=24.8 size=N/A time=00:00:06.64 bitrate=N/A    frame=  336 fps=5.5 q=24.8 size=N/A time=00:00:06.72 bitrate=N/A    frame=  340 fps=5.5 q=24.8 size=N/A time=00:00:06.80 bitrate=N/A    frame=  343 fps=5.5 q=24.8 size=N/A time=00:00:06.86 bitrate=N/A    frame=  346 fps=5.5 q=24.8 size=N/A time=00:00:06.92 bitrate=N/A    frame=  349 fps=5.5 q=24.8 size=N/A time=00:00:06.98 bitrate=N/A    frame=  352 fps=5.5 q=24.8 size=N/A time=00:00:07.04 bitrate=N/A    frame=  355 fps=5.5 q=24.8 size=N/A time=00:00:07.10 bitrate=N/A    frame=  357 fps=5.5 q=24.8 size=N/A time=00:00:07.14 bitrate=N/A    frame=  360 fps=5.5 q=24.8 size=N/A time=00:00:07.20 bitrate=N/A    frame=  363 fps=5.5 q=24.8 size=N/A time=00:00:07.26 bitrate=N/A    frame=  366 fps=5.5 q=24.8 size=N/A time=00:00:07.32 bitrate=N/A    frame=  369 fps=5.5 q=24.8 size=N/A time=00:00:07.38 bitrate=N/A    frame=  373 fps=5.5 q=24.8 size=N/A time=00:00:07.46 bitrate=N/A    frame=  376 fps=5.5 q=24.8 size=N/A time=00:00:07.52 bitrate=N/A    frame=  380 fps=5.5 q=24.8 size=N/A time=00:00:07.60 bitrate=N/A    frame=  383 fps=5.5 q=24.8 size=N/A time=00:00:07.66 bitrate=N/A    frame=  386 fps=5.5 q=24.8 size=N/A time=00:00:07.72 bitrate=N/A    frame=  389 fps=5.5 q=24.8 size=N/A time=00:00:07.78 bitrate=N/A    frame=  392 fps=5.5 q=24.8 size=N/A time=00:00:07.84 bitrate=N/A    frame=  396 fps=5.5 q=24.8 size=N/A time=00:00:07.92 bitrate=N/A    frame=  399 fps=5.5 q=24.8 size=N/A time=00:00:07.98 bitrate=N/A    frame=  401 fps=5.5 q=24.8 size=N/A time=00:00:08.02 bitrate=N/A    frame=  404 fps=5.5 q=24.8 size=N/A time=00:00:08.08 bitrate=N/A    frame=  407 fps=5.5 q=24.8 size=N/A time=00:00:08.14 bitrate=N/A    frame=  410 fps=5.5 q=24.8 size=N/A time=00:00:08.20 bitrate=N/A    frame=  413 fps=5.5 q=24.8 size=N/A time=00:00:08.26 bitrate=N/A    frame=  416 fps=5.5 q=24.8 size=N/A time=00:00:08.32 bitrate=N/A    frame=  419 fps=5.5 q=24.8 size=N/A time=00:00:08.38 bitrate=N/A    frame=  423 fps=5.5 q=24.8 size=N/A time=00:00:08.46 bitrate=N/A    frame=  426 fps=5.5 q=24.8 size=N/A time=00:00:08.52 bitrate=N/A    frame=  429 fps=5.5 q=24.8 size=N/A time=00:00:08.58 bitrate=N/A    frame=  432 fps=5.5 q=24.8 size=N/A time=00:00:08.64 bitrate=N/A    frame=  435 fps=5.5 q=24.8 size=N/A time=00:00:08.70 bitrate=N/A    frame=  438 fps=5.5 q=24.8 size=N/A time=00:00:08.76 bitrate=N/A    frame=  441 fps=5.5 q=24.8 size=N/A time=00:00:08.82 bitrate=N/A    frame=  445 fps=5.5 q=24.8 size=N/A time=00:00:08.90 bitrate=N/A    frame=  449 fps=5.5 q=24.8 size=N/A time=00:00:08.98 bitrate=N/A    frame=  452 fps=5.5 q=24.8 size=N/A time=00:00:09.04 bitrate=N/A    frame=  455 fps=5.5 q=24.8 size=N/A time=00:00:09.10 bitrate=N/A    frame=  458 fps=5.5 q=24.8 size=N/A time=00:00:09.16 bitrate=N/A    frame=  462 fps=5.5 q=24.8 size=N/A time=00:00:09.24 bitrate=N/A    frame=  466 fps=5.5 q=24.8 size=N/A time=00:00:09.32 bitrate=N/A    frame=  468 fps=5.5 q=24.8 size=N/A time=00:00:09.36 bitrate=N/A    frame=  472 fps=5.5 q=24.8 size=N/A time=00:00:09.44 bitrate=N/A    frame=  476 fps=5.5 q=24.8 size=N/A time=00:00:09.52 bitrate=N/A    frame=  479 fps=5.5 q=24.8 size=N/A time=00:00:09.58 bitrate=N/A    frame=  482 fps=5.5 q=24.8 size=N/A time=00:00:09.64 bitrate=N/A    frame=  485 fps=5.5 q=24.8 size=N/A time=00:00:09.70 bitrate=N/A    frame=  488 fps=5.5 q=24.8 size=N/A time=00:00:09.76 bitrate=N/A    frame=  492 fps=5.5 q=24.8 size=N/A time=00:00:09.84 bitrate=N/A    frame=  495 fps=5.5 q=24.8 size=N/A time=00:00:09.90 bitrate=N/A    frame=  498 fps=5.5 q=24.8 size=N/A time=00:00:09.96 bitrate=N/A    frame=  502 fps=5.5 q=24.8 size=N/A time=00:00:10.04 bitrate=N/A    frame=  505 fps=5.5 q=24.8 size=N/A time=00:00:10.10 bitrate=N/A    frame=  508 fps=5.5 q=24.8 size=N/A time=00:00:10.16 bitrate=N/A    frame=  511 fps=5.5 q=24.8 size=N/A time=00:00:10.22 bitrate=N/A    frame=  514 fps=5.5 q=24.8 size=N/A time=00:00:10.28 bitrate=N/A    frame=  517 fps=5.5 q=24.8 size=N/A time=00:00:10.34 bitrate=N/A    frame=  520 fps=5.5 q=24.8 size=N/A time=00:00:10.40 bitrate=N/A    frame=  523 fps=5.5 q=24.8 size=N/A time=00:00:10.46 bitrate=N/A    frame=  527 fps=5.5 q=24.8 size=N/A time=00:00:10.54 bitrate=N/A    frame=  530 fps=5.5 q=24.8 size=N/A time=00:00:10.60 bitrate=N/A    frame=  533 fps=5.5 q=24.8 size=N/A time=00:00:10.66 bitrate=N/A    frame=  536 fps=5.5 q=24.8 size=N/A time=00:00:10.72 bitrate=N/A    frame=  540 fps=5.5 q=24.8 size=N/A time=00:00:10.80 bitrate=N/A    frame=  543 fps=5.5 q=24.8 size=N/A time=00:00:10.86 bitrate=N/A    frame=  546 fps=5.5 q=24.8 size=N/A time=00:00:10.92 bitrate=N/A    frame=  550 fps=5.5 q=24.8 size=N/A time=00:00:11.00 bitrate=N/A    frame=  554 fps=5.5 q=24.8 size=N/A time=00:00:11.08 bitrate=N/A    frame=  558 fps=5.5 q=24.8 size=N/A time=00:00:11.16 bitrate=N/A    frame=  562 fps=5.5 q=24.8 size=N/A time=00:00:11.24 bitrate=N/A    frame=  566 fps=5.5 q=24.8 size=N/A time=00:00:11.32 bitrate=N/A    frame=  570 fps=5.6 q=24.8 size=N/A time=00:00:11.40 bitrate=N/A    frame=  574 fps=5.6 q=24.8 size=N/A time=00:00:11.48 bitrate=N/A    frame=  578 fps=5.6 q=24.8 size=N/A time=00:00:11.56 bitrate=N/A    frame=  582 fps=5.6 q=24.8 size=N/A time=00:00:11.64 bitrate=N/A    frame=  585 fps=5.6 q=24.8 size=N/A time=00:00:11.70 bitrate=N/A    frame=  589 fps=5.6 q=24.8 size=N/A time=00:00:11.78 bitrate=N/A    frame=  593 fps=5.6 q=24.8 size=N/A time=00:00:11.86 bitrate=N/A    frame=  597 fps=5.6 q=24.8 size=N/A time=00:00:11.94 bitrate=N/A    frame=  601 fps=5.6 q=24.8 size=N/A time=00:00:12.02 bitrate=N/A    frame=  605 fps=5.6 q=24.8 size=N/A time=00:00:12.10 bitrate=N/A    frame=  609 fps=5.6 q=24.8 size=N/A time=00:00:12.18 bitrate=N/A    frame=  612 fps=5.6 q=24.8 size=N/A time=00:00:12.24 bitrate=N/A    frame=  616 fps=5.6 q=24.8 size=N/A time=00:00:12.32 bitrate=N/A    frame=  620 fps=5.6 q=24.8 size=N/A time=00:00:12.40 bitrate=N/A    frame=  624 fps=5.6 q=24.8 size=N/A time=00:00:12.48 bitrate=N/A    frame=  628 fps=5.6 q=24.8 size=N/A time=00:00:12.56 bitrate=N/A    frame=  632 fps=5.6 q=24.8 size=N/A time=00:00:12.64 bitrate=N/A    frame=  636 fps=5.7 q=24.8 size=N/A time=00:00:12.72 bitrate=N/A    frame=  640 fps=5.7 q=24.8 size=N/A time=00:00:12.80 bitrate=N/A    frame=  644 fps=5.7 q=24.8 size=N/A time=00:00:12.88 bitrate=N/A    frame=  648 fps=5.7 q=24.8 size=N/A time=00:00:12.96 bitrate=N/A    frame=  652 fps=5.7 q=24.8 size=N/A time=00:00:13.04 bitrate=N/A    frame=  656 fps=5.7 q=24.8 size=N/A time=00:00:13.12 bitrate=N/A    frame=  660 fps=5.7 q=24.8 size=N/A time=00:00:13.20 bitrate=N/A    frame=  664 fps=5.7 q=24.8 size=N/A time=00:00:13.28 bitrate=N/A    frame=  668 fps=5.7 q=24.8 size=N/A time=00:00:13.36 bitrate=N/A    frame=  672 fps=5.7 q=24.8 size=N/A time=00:00:13.44 bitrate=N/A    frame=  676 fps=5.7 q=24.8 size=N/A time=00:00:13.52 bitrate=N/A    frame=  680 fps=5.7 q=24.8 size=N/A time=00:00:13.60 bitrate=N/A    frame=  684 fps=5.7 q=24.8 size=N/A time=00:00:13.68 bitrate=N/A    frame=  688 fps=5.7 q=24.8 size=N/A time=00:00:13.76 bitrate=N/A    frame=  691 fps=5.7 q=24.8 size=N/A time=00:00:13.82 bitrate=N/A    frame=  695 fps=5.7 q=24.8 size=N/A time=00:00:13.90 bitrate=N/A    frame=  699 fps=5.8 q=24.8 size=N/A time=00:00:13.98 bitrate=N/A    frame=  703 fps=5.8 q=24.8 size=N/A time=00:00:14.06 bitrate=N/A    frame=  706 fps=5.8 q=24.8 size=N/A time=00:00:14.12 bitrate=N/A    frame=  709 fps=5.8 q=24.8 size=N/A time=00:00:14.18 bitrate=N/A    frame=  713 fps=5.8 q=24.8 size=N/A time=00:00:14.26 bitrate=N/A    frame=  717 fps=5.8 q=24.8 size=N/A time=00:00:14.34 bitrate=N/A    frame=  721 fps=5.8 q=24.8 size=N/A time=00:00:14.42 bitrate=N/A    frame=  725 fps=5.8 q=24.8 size=N/A time=00:00:14.50 bitrate=N/A    frame=  729 fps=5.8 q=24.8 size=N/A time=00:00:14.58 bitrate=N/A    frame=  733 fps=5.8 q=24.8 size=N/A time=00:00:14.66 bitrate=N/A    frame=  736 fps=5.8 q=24.8 size=N/A time=00:00:14.72 bitrate=N/A    frame=  740 fps=5.8 q=24.8 size=N/A time=00:00:14.80 bitrate=N/A    frame=  743 fps=5.8 q=24.8 size=N/A time=00:00:14.86 bitrate=N/A    frame=  746 fps=5.8 q=24.8 size=N/A time=00:00:14.92 bitrate=N/A    frame=  750 fps=5.8 q=24.8 size=N/A time=00:00:15.00 bitrate=N/A    frame=  754 fps=5.8 q=24.8 size=N/A time=00:00:15.08 bitrate=N/A    frame=  757 fps=5.8 q=24.8 size=N/A time=00:00:15.14 bitrate=N/A    frame=  760 fps=5.8 q=24.8 size=N/A time=00:00:15.20 bitrate=N/A    frame=  764 fps=5.8 q=24.8 size=N/A time=00:00:15.28 bitrate=N/A    frame=  767 fps=5.8 q=24.8 size=N/A time=00:00:15.34 bitrate=N/A    frame=  771 fps=5.8 q=24.8 size=N/A time=00:00:15.42 bitrate=N/A    frame=  774 fps=5.8 q=24.8 size=N/A time=00:00:15.48 bitrate=N/A    frame=  778 fps=5.8 q=24.8 size=N/A time=00:00:15.56 bitrate=N/A    frame=  781 fps=5.8 q=24.8 size=N/A time=00:00:15.62 bitrate=N/A    frame=  784 fps=5.8 q=24.8 size=N/A time=00:00:15.68 bitrate=N/A    frame=  788 fps=5.8 q=24.8 size=N/A time=00:00:15.76 bitrate=N/A    frame=  791 fps=5.8 q=24.8 size=N/A time=00:00:15.82 bitrate=N/A    frame=  794 fps=5.8 q=24.8 size=N/A time=00:00:15.88 bitrate=N/A    frame=  798 fps=5.8 q=24.8 size=N/A time=00:00:15.96 bitrate=N/A    frame=  801 fps=5.8 q=24.8 size=N/A time=00:00:16.02 bitrate=N/A    frame=  804 fps=5.8 q=24.8 size=N/A time=00:00:16.08 bitrate=N/A    frame=  808 fps=5.8 q=24.8 size=N/A time=00:00:16.16 bitrate=N/A    frame=  811 fps=5.8 q=24.8 size=N/A time=00:00:16.22 bitrate=N/A    frame=  814 fps=5.8 q=24.8 size=N/A time=00:00:16.28 bitrate=N/A    frame=  817 fps=5.8 q=24.8 size=N/A time=00:00:16.34 bitrate=N/A    frame=  821 fps=5.8 q=24.8 size=N/A time=00:00:16.42 bitrate=N/A    frame=  824 fps=5.8 q=24.8 size=N/A time=00:00:16.48 bitrate=N/A    frame=  827 fps=5.8 q=24.8 size=N/A time=00:00:16.54 bitrate=N/A    frame=  831 fps=5.8 q=24.8 size=N/A time=00:00:16.62 bitrate=N/A    frame=  835 fps=5.8 q=24.8 size=N/A time=00:00:16.70 bitrate=N/A    frame=  838 fps=5.8 q=24.8 size=N/A time=00:00:16.76 bitrate=N/A    frame=  841 fps=5.8 q=24.8 size=N/A time=00:00:16.82 bitrate=N/A    frame=  843 fps=5.8 q=24.8 size=N/A time=00:00:16.86 bitrate=N/A    frame=  846 fps=5.8 q=24.8 size=N/A time=00:00:16.92 bitrate=N/A    frame=  849 fps=5.8 q=24.8 size=N/A time=00:00:16.98 bitrate=N/A    frame=  852 fps=5.8 q=24.8 size=N/A time=00:00:17.04 bitrate=N/A    frame=  855 fps=5.8 q=24.8 size=N/A time=00:00:17.10 bitrate=N/A    frame=  859 fps=5.8 q=24.8 size=N/A time=00:00:17.18 bitrate=N/A    frame=  863 fps=5.8 q=24.8 size=N/A time=00:00:17.26 bitrate=N/A    frame=  866 fps=5.8 q=24.8 size=N/A time=00:00:17.32 bitrate=N/A    frame=  870 fps=5.8 q=24.8 size=N/A time=00:00:17.40 bitrate=N/A    frame=  874 fps=5.8 q=24.8 size=N/A time=00:00:17.48 bitrate=N/A    frame=  877 fps=5.8 q=24.8 size=N/A time=00:00:17.54 bitrate=N/A    frame=  881 fps=5.8 q=24.8 size=N/A time=00:00:17.62 bitrate=N/A    frame=  885 fps=5.8 q=24.8 size=N/A time=00:00:17.70 bitrate=N/A    frame=  888 fps=5.8 q=24.8 size=N/A time=00:00:17.76 bitrate=N/A    frame=  892 fps=5.8 q=24.8 size=N/A time=00:00:17.84 bitrate=N/A    frame=  896 fp+ turkic load DJI_0015_gazos_gyer_gabonaban_turas_kotcse_20180710_napos_kalaszos_T4 /home/horvathandras/vatic/vatic/videos/DJI_0015_gazos_gyer_gabonaban_turas_kotcse_20180710_napos_kalaszos_T4 $'Pozit\303\255vROI' $'Negat\303\255vROI' $'T\303\272r\303\241s' '~Friss' '~1-2Hetes' '~Régebbi' '~Egyéb1' '~Egyéb2' '~Egyéb3' $'R\303\241g\303\241s' '~Friss' '~1-2Hetes' '~Régebbi' '~Egyéb1' '~Egyéb2' '~Egyéb3' $'T\303\266r\303\251s' '~Friss' '~1-2Hetes' '~Régebbi' '~Egyéb1' '~Egyéb2' '~Egyéb3' $'Tapos\303\241s' '~Friss' '~1-2Hetes' '~Régebbi' '~Egyéb1' '~Egyéb2' '~Egyéb3' $'Eg\303\251szs\303\251gesN\303\266v\303\251ny' $'Egy\303\251b1' $'Egy\303\251b2' $'Egy\303\251b3' $'Egy\303\251b4' $'Egy\303\251b5' Bizonytalan $'M\305\261vel\305\221\303\272t' $'Gktapos\303\241s' $'Vet\305\221hiba' $'Sz\303\251ld\303\266nt\303\251s' $'J\303\251gk\303\241r' $'Belv\303\255z' $'Asz\303\241ly' $'Er\303\263zi\303\263' $'Egyszik\305\261Gyom' $'K\303\251tszik\305\261Gyom' $'Egy\303\251bN\303\266vv\303\251delmiPR' --offline --title '$filenameNoDot Video' --length 1000 --description 'vatic annotation'
+ turkic publish --offline
+ mkdir /home/horvathandras/vatic/vatic/public/videothumbnails/DJI_0015_gazos_gyer_gabonaban_turas_kotcse_20180710_napos_kalaszos_T4
+ cp /home/horvathandras/vatic/vatic/videos/DJI_0015_gazos_gyer_gabonaban_turas_kotcse_20180710_napos_kalaszos_T4/0/0/31.jpg /home/horvathandras/vatic/vatic/public/videothumbnails/DJI_0015_gazos_gyer_gabonaban_turas_kotcse_20180710_napos_kalaszos_T4/thumb.jpg
 q=24.8 size=N/A time=00:00:19.48 bitrate=N/A    frame=  978 fps=5.8 q=24.8 size=N/A time=00:00:19.56 bitrate=N/A    frame=  978 fps=5.8 q=24.8 Lsize=N/A time=00:00:19.56 bitrate=N/A    
video:920371kB audio:0kB subtitle:0kB other streams:0kB global headers:0kB muxing overhead: unknown
+ turkic load DJI_0015_gazos_gyer_gabonaban_turas_kotcse_20180710_napos_kalaszos_T4 /home/horvathandras/vatic/vatic/videos/DJI_0015_gazos_gyer_gabonaban_turas_kotcse_20180710_napos_kalaszos_T4 $'Pozit\303\255vROI' $'Negat\303\255vROI' $'T\303\272r\303\241s' '~Friss' '~1-2Hetes' '~Régebbi' '~Egyéb1' '~Egyéb2' '~Egyéb3' $'R\303\241g\303\241s' '~Friss' '~1-2Hetes' '~Régebbi' '~Egyéb1' '~Egyéb2' '~Egyéb3' $'T\303\266r\303\251s' '~Friss' '~1-2Hetes' '~Régebbi' '~Egyéb1' '~Egyéb2' '~Egyéb3' $'Tapos\303\241s' '~Friss' '~1-2Hetes' '~Régebbi' '~Egyéb1' '~Egyéb2' '~Egyéb3' $'Eg\303\251szs\303\251gesN\303\266v\303\251ny' $'Egy\303\251b1' $'Egy\303\251b2' $'Egy\303\251b3' $'Egy\303\251b4' $'Egy\303\251b5' Bizonytalan $'M\305\261vel\305\221\303\272t' $'Gktapos\303\241s' $'Vet\305\221hiba' $'Sz\303\251ld\303\266nt\303\251s' $'J\303\251gk\303\241r' $'Belv\303\255z' $'Asz\303\241ly' $'Er\303\263zi\303\263' $'Egyszik\305\261Gyom' $'K\303\251tszik\305\261Gyom' $'Egy\303\251bN\303\266vv\303\251delmiPR' --offline --title '$filenameNoDot Video' --length 1000 --description 'vatic annotation'
+ turkic publish --offline
+ mkdir /home/horvathandras/vatic/vatic/public/videothumbnails/DJI_0015_gazos_gyer_gabonaban_turas_kotcse_20180710_napos_kalaszos_T4
mkdir: cannot create directory '/home/horvathandras/vatic/vatic/public/videothumbnails/DJI_0015_gazos_gyer_gabonaban_turas_kotcse_20180710_napos_kalaszos_T4': File exists
+ cp /home/horvathandras/vatic/vatic/videos/DJI_0015_gazos_gyer_gabonaban_turas_kotcse_20180710_napos_kalaszos_T4/0/0/31.jpg /home/horvathandras/vatic/vatic/public/videothumbnails/DJI_0015_gazos_gyer_gabonaban_turas_kotcse_20180710_napos_kalaszos_T4/thumb.jpg
